<svg width="1986" height="463" viewBox="0 0 1986 463" fill="none" xmlns="http://www.w3.org/2000/svg">
<path d="M1291.56 210.876C1287.11 203.96 1281.12 198.648 1273.57 194.952C1266.02 191.348 1257.5 189.858 1247.99 190.478C1238.68 191.086 1230.52 193.664 1223.51 198.216C1216.32 203.064 1211.07 209.11 1207.74 216.343C1204.14 223.883 1202.64 232.266 1203.24 241.478C1203.84 250.695 1206.42 258.814 1210.96 265.816C1215.52 272.927 1221.52 278.239 1228.96 281.748C1236.4 285.451 1244.84 286.996 1254.25 286.383C1263.85 285.752 1272.1 283.123 1279.02 278.484C1285.94 274.038 1291.19 267.994 1294.79 260.348C1298.39 252.815 1299.89 244.431 1299.29 235.214C1298.67 225.708 1296.09 217.594 1291.56 210.876Z" fill="#0A65EC"/>
<path d="M1529.58 176.346C1523.27 173.74 1516.09 172.7 1508.03 173.226C1499.6 173.776 1492.46 175.75 1486.64 179.148C1480.74 182.654 1475.91 187.209 1472.2 192.805C1469.1 197.685 1467.12 203.268 1466.27 209.562L1553.88 203.846C1552.01 197.638 1549.27 192.358 1545.68 188.012C1541.65 183.017 1536.28 179.125 1529.58 176.346Z" fill="#0A65EC"/>
<path d="M1731.86 227.941C1731.88 222.492 1734.13 217.728 1737.48 214.375C1734.13 217.728 1731.87 222.492 1731.86 227.941Z" fill="#0A65EC"/>
<path d="M1751.16 208.708H1751.08C1751.96 208.704 1752.84 208.88 1753.72 209.004C1752.87 208.883 1752.01 208.708 1751.16 208.708Z" fill="#0A65EC"/>
<path d="M1733.7 236.125C1732.52 233.641 1731.86 230.785 1731.86 227.941C1731.86 230.785 1732.52 233.641 1733.7 236.125Z" fill="#0A65EC"/>
<path d="M1780.06 256.821L1810.41 321.475V321.471L1780.06 256.821Z" fill="#0A65EC"/>
<path d="M1687.39 164.739C1680.7 165.175 1674.87 167.017 1669.92 170.263C1664.79 173.718 1661.03 177.421 1658.66 181.378C1656.27 185.139 1655.37 191.526 1655.97 200.547L1661.56 286.266L1629.69 288.343L1619.89 138.157L1651.47 136.099L1652.32 149.051C1656.78 144.282 1662.04 140.599 1668.11 138.01C1674.18 135.425 1680.65 133.905 1687.54 133.457L1708.35 132.099L1710.38 163.241L1687.39 164.739ZM1588.34 230.246L1468.56 238.061C1470.81 244.05 1473.76 249.018 1477.43 252.969C1482.37 258.491 1488.26 262.497 1495.09 264.974C1501.93 267.445 1509.18 268.439 1516.84 267.939C1525.48 267.375 1533.12 265.071 1539.78 261.035C1543.16 259.061 1546.21 256.646 1548.95 253.786C1551.69 250.929 1554.38 247.367 1557.03 243.103L1585.18 258.073C1581.14 264.766 1576.83 270.461 1572.27 275.137C1567.7 279.822 1562.56 283.861 1556.83 287.253C1545.59 294.125 1532.93 298.019 1518.86 298.935C1503.44 299.942 1489.34 297.405 1476.57 291.318C1464.01 285.415 1453.78 276.581 1445.91 264.821C1438.12 252.955 1433.76 239.941 1432.84 225.775C1431.89 211.222 1434.37 197.714 1440.27 185.243C1446.19 172.874 1454.84 162.861 1466.24 155.195C1477.81 147.526 1491.07 143.202 1506.01 142.226C1520.95 141.251 1534.56 143.775 1546.84 149.791C1558.82 155.735 1568.56 164.598 1576.05 176.389C1583.33 187.799 1587.45 200.882 1588.41 215.629C1588.69 219.994 1588.67 224.867 1588.34 230.246ZM1372.54 305.118L1357.72 77.95L1387.26 76.022L1402.08 303.19L1372.54 305.118ZM1324.61 273.899C1318.43 286.775 1309.59 296.951 1298.1 304.422C1286.53 312.194 1273.17 316.571 1258.03 317.557C1247.36 318.257 1237.45 317.046 1228.28 313.942C1221.02 311.69 1214.42 308.414 1208.5 304.127L1213.37 378.93L1180.62 381.067L1166.7 167.575L1199.45 165.438L1200.33 178.973C1205.56 173.953 1211.62 169.761 1218.51 166.39C1227.2 162.218 1236.93 159.775 1247.7 159.071C1262.83 158.085 1276.65 160.694 1289.13 166.895C1301.5 172.809 1311.58 181.705 1319.37 193.565C1326.84 205.067 1331.06 218.234 1332.03 233.081C1332.98 247.729 1330.51 261.334 1324.61 273.899ZM1097.34 323.066L1091.31 230.655C1090.94 225.031 1089.33 220.023 1086.46 215.627C1083.58 211.239 1079.64 207.842 1074.61 205.439C1069.59 203.138 1063.83 202.197 1057.33 202.622C1051.12 203.026 1045.68 204.695 1041 207.631C1036.23 210.771 1032.69 214.655 1030.36 219.285C1027.94 224.026 1026.91 229.21 1027.28 234.834L1033.31 327.246L1000.28 329.401L994.248 236.989C993.871 231.265 992.235 226.261 989.319 221.962C986.595 217.569 982.718 214.166 977.694 211.759C972.767 209.451 967.107 208.509 960.702 208.925C954.396 209.334 948.898 211.009 944.22 213.946C939.739 216.967 936.248 220.895 933.735 225.734C931.315 230.474 930.291 235.609 930.651 241.138L936.678 333.547L903.644 335.703L893.836 185.374L925.998 183.274L926.567 192.006C930.719 188.425 935.202 185.498 940.028 183.237C946.834 180.063 954.554 178.193 963.184 177.629C973.375 176.965 982.718 178.259 991.21 181.503C998.916 184.606 1005.42 188.761 1010.73 193.966C1015.6 188.002 1021.75 183.019 1029.19 179.025C1037.68 174.677 1047.11 172.155 1057.49 171.481C1069.43 170.701 1080.36 172.474 1090.29 176.795C1100.23 181.406 1108.15 187.811 1114.05 196.002C1120.04 204.375 1123.41 214.046 1124.12 225.011L1130.38 320.913L1097.34 323.066ZM826.512 340.734L816.592 188.657L846.28 186.719L856.2 338.795L826.512 340.734ZM807.774 138.663C807.374 132.554 808.938 127.337 812.452 123.017C815.878 118.695 820.548 116.349 826.464 115.961C832.382 115.577 837.367 117.295 841.414 121.126C845.371 125.058 847.552 130.027 847.942 136.042C848.334 142.058 846.82 147.275 843.406 151.683C839.7 156.015 834.975 158.373 829.254 158.743C823.434 159.126 818.499 157.399 814.444 153.573C810.388 149.554 808.162 144.585 807.774 138.663ZM774.644 314.007C768.908 324.714 760.124 333.517 748.3 340.429C736.652 347.034 723.064 350.842 707.543 351.854C692.499 352.834 678.739 350.907 666.244 346.07C653.747 341.233 643.623 333.906 635.872 324.082C631.932 318.987 628.9 313.481 626.76 307.577C624.62 301.677 623.29 294.799 622.779 286.939L657.126 284.699C657.434 289.454 658.178 293.401 659.358 296.537C660.535 299.677 662.238 302.585 664.456 305.267C668.682 310.258 674.428 314.017 681.711 316.563C688.992 319.209 697.147 320.231 706.176 319.645C715.099 319.062 722.951 316.994 729.734 313.429C736.424 309.977 741.26 305.618 744.227 300.355C747.463 294.693 748.871 288.606 748.446 282.109C748.015 275.511 745.912 270.138 742.134 266.002C738.252 261.777 733.042 258.799 726.494 257.087C722.527 255.978 718.635 255.258 714.81 254.925C711.876 254.729 706.058 254.47 697.372 254.161C690.832 253.998 685.07 253.793 680.084 253.537C674.503 253.123 669.775 252.402 665.918 251.391C651.971 248.207 640.939 241.965 632.832 232.647C624.634 223.443 620.095 212.187 619.228 198.897C618.426 186.574 620.939 175.015 626.76 164.206C632.606 153.795 641.166 145.343 652.436 138.858C663.508 132.386 676.472 128.666 691.316 127.698C706.063 126.738 719.431 128.546 731.42 133.118C743.318 137.805 753.086 144.861 760.719 154.298C764.54 159.119 767.462 164.383 769.49 170.097C771.522 175.814 772.831 182.445 773.423 190.006L738.93 192.258C738.539 187.805 737.76 184.061 736.591 181.011C735.412 177.975 733.822 175.251 731.82 172.846C727.808 168.141 722.567 164.679 716.086 162.478C709.599 160.171 702.048 159.298 693.412 159.859C685.748 160.361 678.727 162.114 672.346 165.106C665.96 168.11 661.012 172.549 657.504 178.426C654.438 183.69 653.091 189.29 653.478 195.206C653.871 201.215 655.856 206.255 659.438 210.306C663.323 214.633 668.391 217.662 674.639 219.394C678.904 220.487 682.599 221.169 685.74 221.45C692.282 221.71 697.796 221.883 702.284 221.981C709.8 222.173 715.663 222.418 719.876 222.734C725.942 223.213 730.959 223.91 734.916 224.818C748.766 228.009 759.939 234.203 768.424 243.385C776.723 252.591 781.331 264.171 782.24 278.145C783.103 291.341 780.566 303.294 774.644 314.007ZM1706.17 227.874C1706.2 215.913 1710.86 204.677 1719.24 196.27C1727.71 187.751 1738.99 183.042 1750.98 183.014H1751.16C1757.75 183.014 1764.38 184.518 1770.13 187.258L1806.86 204.349L1802.72 116.489C1799.56 49.342 1742.6 -2.56198 1675.45 0.607361L636.458 49.2567C569.224 52.4247 517.323 109.379 520.491 176.614L528.37 344.057C531.539 411.205 588.496 463.106 655.643 459.935L1694.64 411.289C1703.63 410.587 1716.48 408.805 1731.13 403.923C1741.58 400.441 1758.43 394.701 1774.14 382.773L1710.47 247.114C1707.64 241.139 1706.15 234.49 1706.17 227.874Z" fill="#0A65EC"/>
<path d="M1872 335.711C1866.33 337.258 1861.93 341.65 1860.37 347.316L1846.39 398.119V398.124L1810.41 321.475L1780.06 256.822L1920.9 322.354L1872 335.711ZM1975.98 311.386L1759.29 210.551C1758.06 209.964 1756.72 209.506 1755.33 209.191C1754.8 209.071 1754.26 209.082 1753.72 209.004C1752.84 208.88 1751.96 208.704 1751.08 208.708C1745.6 208.72 1740.81 211.016 1737.47 214.375C1734.13 217.728 1731.88 222.491 1731.86 227.94C1731.86 230.784 1732.52 233.64 1733.69 236.126L1835.44 452.904C1836.16 454.428 1837.1 455.788 1838.19 456.99C1838.55 457.387 1839.01 457.659 1839.4 458.016C1840.2 458.742 1840.99 459.47 1841.91 460.023C1842.45 460.348 1843.04 460.532 1843.62 460.795C1844.5 461.198 1845.38 461.611 1846.33 461.854C1846.98 462.022 1847.66 462.054 1848.33 462.14C1849.5 462.294 1850.66 462.484 1851.87 462.38C1858.81 461.792 1864.61 456.968 1866.46 450.252L1889.86 365.234L1973.36 342.432C1980.07 340.596 1984.93 334.766 1985.52 327.828C1986.1 320.886 1982.3 314.32 1975.98 311.386Z" fill="#0A65EC"/>
<path d="M33.2099 201.891V351.758H0.644531V145.446H31.9672L135.33 295.318V145.446H168.038V351.758H136.573L33.2099 201.891Z" fill="#0A65EC"/>
<path d="M298.587 237.009C292.791 234.161 286.074 232.731 278.438 232.731C270.434 232.731 263.581 234.161 257.875 237.009C252.079 239.959 247.249 243.956 243.385 249.016C240.165 253.432 237.957 258.585 236.765 264.473H319.839C318.461 258.492 316.202 253.341 313.078 249.016C309.578 244.048 304.747 240.045 298.587 237.009ZM237.178 291.523C238.922 297.317 241.406 302.196 244.627 306.148C248.951 311.667 254.266 315.808 260.569 318.568C266.866 321.327 273.654 322.707 280.922 322.707C289.111 322.707 296.471 321.005 303.003 317.601C306.315 315.945 309.351 313.855 312.113 311.324C314.871 308.795 317.633 305.593 320.393 301.735L346.057 317.601C341.825 323.673 337.409 328.78 332.809 332.921C328.209 337.06 323.102 340.556 317.494 343.409C306.453 349.204 294.263 352.103 280.922 352.103C266.294 352.103 253.137 348.837 241.453 342.305C229.951 335.957 220.843 326.985 214.131 315.393C207.507 303.712 204.195 291.153 204.195 277.721C204.195 263.921 207.369 251.316 213.718 239.908C220.066 228.592 228.847 219.671 240.073 213.135C251.481 206.607 264.27 203.341 278.438 203.341C292.607 203.341 305.299 206.56 316.529 212.996C327.473 219.344 336.121 228.315 342.47 239.908C348.634 251.132 351.717 263.737 351.717 277.721C351.717 281.861 351.394 286.461 350.75 291.523H237.178Z" fill="#0A65EC"/>
<path d="M410.227 346.492C403.695 342.996 398.502 337.891 394.636 331.175C390.956 324.738 389.116 317.332 389.116 308.956V237.195H369.795V208.632H389.116V181.996H419.612V208.632H465.016V237.195H419.612V304.819C419.612 310.611 421.222 315.124 424.442 318.34C427.754 321.651 432.355 323.308 438.243 323.308H465.016V351.875H432.86C424.395 351.875 416.852 350.08 410.227 346.492Z" fill="#0A65EC"/>
</svg>
