<svg width="287" height="287" viewBox="0 0 287 287" fill="none" xmlns="http://www.w3.org/2000/svg">
<path d="M228.505 286.989H58.484C26.184 286.989 0 260.805 0 228.505V58.4825C0 26.1839 26.184 -0.00012207 58.484 -0.00012207H228.505C260.805 -0.00012207 286.989 26.1839 286.989 58.4825V228.505C286.989 260.805 260.805 286.989 228.505 286.989Z" fill="#0964EB"/>
<path d="M198.762 56.0357L49.3955 230.954H88.2048L237.594 56.0357H198.762Z" fill="white"/>
<path d="M238.603 230.943H199.795L170.315 196.436L140.789 230.943H101.958L170.315 150.971L238.603 230.943Z" fill="white"/>
<path d="M185.032 56.0358H146.223L116.743 90.5425L87.2174 56.0358H48.3867L116.743 136.008L185.032 56.0358Z" fill="white"/>
</svg>
